<svg width="24" height="24" viewBox="0 0 24 24" fill="none" xmlns="http://www.w3.org/2000/svg">
<path opacity="0.8" d="M12 17C13.1046 17 14 16.1046 14 15C14 13.8954 13.1046 13 12 13C10.8954 13 10 13.8954 10 15C10 16.1046 10.8954 17 12 17Z" stroke="white" stroke-width="1.5" stroke-linecap="round" stroke-linejoin="round"/>
<path opacity="0.8" d="M5.84006 16.0297C6.40891 16.0297 6.87006 15.5686 6.87006 14.9997C6.87006 14.4309 6.40891 13.9697 5.84006 13.9697C5.2712 13.9697 4.81006 14.4309 4.81006 14.9997C4.81006 15.5686 5.2712 16.0297 5.84006 16.0297Z" fill="white"/>
<path opacity="0.8" fill-rule="evenodd" clip-rule="evenodd" d="M14.077 8.25H9.92299L11.423 9.75H12.577L14.077 8.25ZM14.6983 9.75L16.1983 8.25H19.25C21.3242 8.25 23 9.92579 23 12V18C23 20.0742 21.3242 21.75 19.25 21.75H4.75C2.67579 21.75 1 20.0742 1 18V12C1 9.92579 2.67579 8.25 4.75 8.25H7.80167L9.30167 9.75H4.75C3.50421 9.75 2.5 10.7542 2.5 12V18C2.5 19.2458 3.50421 20.25 4.75 20.25H19.25C20.4958 20.25 21.5 19.2458 21.5 18V12C21.5 10.7542 20.4958 9.75 19.25 9.75H14.6983Z" fill="white"/>
<path fill-rule="evenodd" clip-rule="evenodd" d="M7.23123 4.44176C7.53954 4.13345 8.03941 4.13345 8.34772 4.44176L11.2105 7.30457L11.2105 0.789473C11.2105 0.353459 11.564 -1.99498e-07 12 -2.18557e-07C12.436 7.16059e-07 12.7895 0.353459 12.7895 0.789473L12.7895 7.30457L15.6523 4.44176C15.9606 4.13345 16.4605 4.13345 16.7688 4.44176C17.0771 4.75007 17.0771 5.24993 16.7688 5.55824L12.5582 9.76877C12.2499 10.0771 11.7501 10.0771 11.4418 9.76877L7.23123 5.55824C6.92292 5.24993 6.92292 4.75007 7.23123 4.44176Z" fill="white"/>
<path opacity="0.8" d="M18.1399 16.0297C18.7087 16.0297 19.1699 15.5686 19.1699 14.9997C19.1699 14.4309 18.7087 13.9697 18.1399 13.9697C17.571 13.9697 17.1099 14.4309 17.1099 14.9997C17.1099 15.5686 17.571 16.0297 18.1399 16.0297Z" fill="white"/>
</svg>
