<svg width="40" height="40" viewBox="0 0 40 40" fill="none" xmlns="http://www.w3.org/2000/svg">
<path fill-rule="evenodd" clip-rule="evenodd" d="M33.5 10.7833L28 5.28325C26.7487 4.03333 25.052 3.33186 23.2833 3.33325H15.5C13.7314 3.33186 12.0346 4.03333 10.7833 5.28325L5.28333 10.7833C4.03341 12.0346 3.33194 13.7313 3.33333 15.4999V23.2833C3.33635 25.0461 4.03748 26.736 5.28333 27.9833L10.7833 33.4999C12.0346 34.7498 13.7314 35.4513 15.5 35.4499H23.2833C25.052 35.4513 26.7487 34.7498 28 33.4999L33.5 27.9833C34.7458 26.736 35.447 25.0461 35.45 23.2833V15.4999C35.4514 13.7313 34.7499 12.0346 33.5 10.7833ZM18.1333 13.7833C18.1333 13.3367 18.3716 12.924 18.7583 12.7007C19.1451 12.4774 19.6216 12.4774 20.0083 12.7007C20.3951 12.924 20.6333 13.3367 20.6333 13.7833V18.9499C20.6333 19.6403 20.0737 20.1999 19.3833 20.1999C18.693 20.1999 18.1333 19.6403 18.1333 18.9499V13.7833ZM19.4 25.0333C20.0904 25.0333 20.65 24.4736 20.65 23.7833C20.65 23.0929 20.0904 22.5333 19.4 22.5333C18.7096 22.5333 18.15 23.0929 18.15 23.7833C18.15 24.4736 18.7096 25.0333 19.4 25.0333Z" fill="#EF4444"/>
</svg>
