<svg width="24" height="25" viewBox="0 0 24 25" fill="none" xmlns="http://www.w3.org/2000/svg">
<path d="M15.0616 5.70501C14.32 6.5447 13.1335 7.20699 11.9469 7.11238C11.7986 5.97702 12.3795 4.77071 13.0593 4.02563C13.8009 3.16229 15.0987 2.54731 16.1493 2.5C16.2729 3.68266 15.7909 4.84167 15.0616 5.70501ZM16.1369 7.33708C14.4189 7.24247 12.9481 8.27138 12.1323 8.27138C11.3042 8.27138 10.0559 7.38439 8.69628 7.40804C6.92881 7.43169 5.28494 8.38965 4.38266 9.91528C2.52868 12.9665 3.90063 17.4843 5.69282 19.9679C6.57037 21.1979 7.62096 22.5461 9.00527 22.4988C10.3154 22.4515 10.8345 21.6828 12.4166 21.6828C14.011 21.6828 14.4684 22.4988 15.8527 22.4751C17.2864 22.4515 18.1887 21.2452 19.0662 20.0152C20.0674 18.6197 20.4753 17.2596 20.5 17.1886C20.4753 17.165 17.7314 16.1597 17.7067 13.1321C17.6819 10.6012 19.8696 9.39491 19.9685 9.32395C18.7325 7.57361 16.8044 7.38439 16.1369 7.33708Z" fill="white"/>
</svg>
