<svg width="42" height="26" viewBox="0 0 42 26" fill="none" xmlns="http://www.w3.org/2000/svg">
<path d="M37.8338 8.01666V6.73711L36.9663 7.67767L27.0739 18.4027L27.0737 18.4029C26.7967 18.7036 26.4081 18.9098 25.9733 18.9766C25.5388 19.0433 25.0947 18.965 24.7207 18.7593C24.7204 18.7591 24.72 18.7589 24.7196 18.7587L14.7592 13.2131L14.4105 13.019L14.1439 13.3161L3.76157 24.8861L3.76148 24.8861C3.59164 25.0755 3.37656 25.2304 3.13001 25.3374C2.8834 25.4445 2.61285 25.5004 2.33797 25.5L2.3363 25.5C1.89834 25.5008 1.4784 25.3589 1.14905 25.1055C0.964033 24.963 0.813459 24.7899 0.704146 24.5974C0.5949 24.405 0.528566 24.1963 0.507408 23.9832C0.486253 23.7701 0.51047 23.5549 0.579304 23.3492C0.648172 23.1435 0.760848 22.95 0.912859 22.7806C0.912862 22.7806 0.912866 22.7806 0.912869 22.7806L12.5784 9.7806L12.5787 9.78025C12.8539 9.47293 13.2445 9.26067 13.6836 9.19058C14.1228 9.12046 14.5728 9.19886 14.9509 9.40767L25.0298 14.976L25.3747 15.1665L25.6406 14.8758L34.973 4.67076L35.7389 3.83333H34.6041H28.0014C27.5037 3.83333 27.0333 3.64941 26.6919 3.33235C26.3517 3.01645 26.1683 2.59625 26.1683 2.16667C26.1683 1.73708 26.3517 1.31689 26.6919 1.00098C27.0333 0.683921 27.5037 0.5 28.0014 0.5H35.4515H41C41.2761 0.5 41.5 0.723858 41.5 0.999999V9.1V13C41.5 13.4296 41.3166 13.8498 40.9764 14.1657C40.635 14.4827 40.1645 14.6667 39.6669 14.6667C39.1693 14.6667 38.6988 14.4827 38.3574 14.1657C38.0172 13.8498 37.8338 13.4296 37.8338 13V8.01666Z" fill="#4DBB7E" stroke="#F9F9F9"/>
</svg>
