<svg width="144" height="48" viewBox="0 0 144 48" fill="none" xmlns="http://www.w3.org/2000/svg">
<path d="M36 19H32V35H36V19Z" stroke="#8899C8" stroke-width="2" stroke-linecap="round" stroke-linejoin="round"/>
<path d="M26 19H22V35H26V19Z" stroke="#8899C8" stroke-width="2" stroke-linecap="round" stroke-linejoin="round"/>
<path d="M16 19H12V35H16V19Z" stroke="#8899C8" stroke-width="2" stroke-linecap="round" stroke-linejoin="round"/>
<path d="M8.12364 13.3747L8.12365 13.3747L8.12923 13.3722L22.8892 6.7522L22.8893 6.75223L22.8967 6.74883C23.5894 6.43131 24.3882 6.42778 25.1104 6.75204L25.1108 6.7522L39.8708 13.3722L39.8764 13.3747C40.8663 13.8114 41.5 14.7875 41.5 15.8998C41.5 17.4379 40.2574 18.6798 38.76 18.6798H9.23999C7.7392 18.6798 6.5 17.4544 6.5 15.8998C6.5 14.7875 7.13374 13.8114 8.12364 13.3747Z" stroke="#AFBBDB" stroke-width="2" stroke-linecap="round" stroke-linejoin="round"/>
<path d="M6.55255 40.2709L6.5528 40.2699L7.55184 36.0539C7.6605 35.6151 8.06901 35.2793 8.57974 35.2793H39.4398C39.9433 35.2793 40.3636 35.61 40.4905 36.0657L41.4867 40.2699L41.487 40.2709C41.63 40.8717 41.1659 41.4993 40.4598 41.4993H7.57974C6.87363 41.4993 6.4095 40.8717 6.55255 40.2709Z" stroke="#AFBBDB" stroke-width="2" stroke-linecap="round" stroke-linejoin="round"/>
<path d="M22.9805 13.4395H25.0204" stroke="white" stroke-width="2" stroke-linecap="round" stroke-linejoin="round"/>
<path d="M84 25C84.5523 25 85 24.5523 85 24C85 23.4477 84.5523 23 84 23V25ZM59.2929 23.2929C58.9024 23.6834 58.9024 24.3166 59.2929 24.7071L65.6569 31.0711C66.0474 31.4616 66.6805 31.4616 67.0711 31.0711C67.4616 30.6805 67.4616 30.0474 67.0711 29.6569L61.4142 24L67.0711 18.3431C67.4616 17.9526 67.4616 17.3195 67.0711 16.9289C66.6805 16.5384 66.0474 16.5384 65.6569 16.9289L59.2929 23.2929ZM84 23L60 23V25L84 25V23Z" fill="#8899C8"/>
<path d="M132 19H128V35H132V19Z" stroke="#8899C8" stroke-width="2" stroke-linecap="round" stroke-linejoin="round"/>
<path d="M122 19H118V35H122V19Z" stroke="#8899C8" stroke-width="2" stroke-linecap="round" stroke-linejoin="round"/>
<path d="M112 19H108V35H112V19Z" stroke="#8899C8" stroke-width="2" stroke-linecap="round" stroke-linejoin="round"/>
<path d="M104.124 13.3747L104.124 13.3747L104.129 13.3722L118.889 6.7522L118.889 6.75223L118.897 6.74883C119.589 6.43131 120.388 6.42778 121.11 6.75204L121.111 6.7522L135.871 13.3722L135.876 13.3747C136.866 13.8114 137.5 14.7875 137.5 15.8998C137.5 17.4379 136.257 18.6798 134.76 18.6798H105.24C103.739 18.6798 102.5 17.4544 102.5 15.8998C102.5 14.7875 103.134 13.8114 104.124 13.3747Z" stroke="#AFBBDB" stroke-width="2" stroke-linecap="round" stroke-linejoin="round"/>
<path d="M102.553 40.2709L102.553 40.2699L103.552 36.0539C103.66 35.6151 104.069 35.2793 104.58 35.2793H135.44C135.943 35.2793 136.364 35.61 136.49 36.0657L137.487 40.2699L137.487 40.2709C137.63 40.8717 137.166 41.4993 136.46 41.4993H103.58C102.874 41.4993 102.41 40.8717 102.553 40.2709Z" stroke="#AFBBDB" stroke-width="2" stroke-linecap="round" stroke-linejoin="round"/>
<path d="M118.98 13.4395H121.02" stroke="white" stroke-width="2" stroke-linecap="round" stroke-linejoin="round"/>
</svg>
