<svg width="24" height="24" viewBox="0 0 24 24" fill="none" xmlns="http://www.w3.org/2000/svg">
<rect width="24" height="24" fill="white"/>
<path d="M2.58355 18.3882L1.85495 18.2102L1.85373 18.2154L2.58355 18.3882ZM2.04322 20.6699L2.77285 20.8435L2.77303 20.8427L2.04322 20.6699ZM21.9706 20.6699L21.2408 20.8427L21.241 20.8435L21.9706 20.6699ZM21.4303 18.3882L22.1601 18.2154C22.1585 18.2086 22.1568 18.2018 22.155 18.1951L21.4303 18.3882ZM9.5106 9.66153H10.2606C10.2606 9.24732 9.92481 8.91153 9.5106 8.91153V9.66153ZM5.06908 9.66153V8.91153C4.65487 8.91153 4.31908 9.24732 4.31908 9.66153H5.06908ZM5.06908 17.5556H4.31908C4.31908 17.9698 4.65487 18.3056 5.06908 18.3056V17.5556ZM9.5106 17.5556V18.3056C9.92481 18.3056 10.2606 17.9698 10.2606 17.5556H9.5106ZM18.3828 9.66153H19.1328C19.1328 9.24732 18.797 8.91153 18.3828 8.91153V9.66153ZM13.9413 9.66153V8.91153C13.5271 8.91153 13.1913 9.24732 13.1913 9.66153H13.9413ZM13.9413 17.5556H13.1913C13.1913 17.9698 13.5271 18.3056 13.9413 18.3056V17.5556ZM18.3828 17.5556V18.3056C18.797 18.3056 19.1328 17.9698 19.1328 17.5556H18.3828ZM3.19953 5.75778L3.50244 6.44391L3.50663 6.44203L3.19953 5.75778ZM11.1748 2.17843L11.4819 2.8627L11.4875 2.86015L11.1748 2.17843ZM12.8174 2.17843L12.5101 2.86255L12.5103 2.86267L12.8174 2.17843ZM20.7927 5.75778L20.4856 6.44204L20.4898 6.4439L20.7927 5.75778ZM11.445 5.53764C11.0308 5.53764 10.695 5.87343 10.695 6.28764C10.695 6.70186 11.0308 7.03764 11.445 7.03764V5.53764ZM12.5473 7.03764C12.9615 7.03764 13.2973 6.70186 13.2973 6.28764C13.2973 5.87343 12.9615 5.53764 12.5473 5.53764V7.03764ZM20.3388 16.8056H3.66421V18.3056H20.3388V16.8056ZM3.66421 16.8056C2.80902 16.8056 2.05803 17.379 1.85497 18.2102L3.31212 18.5662C3.34681 18.4242 3.48196 18.3056 3.66421 18.3056V16.8056ZM1.85373 18.2154L1.3134 20.4971L2.77303 20.8427L3.31336 18.561L1.85373 18.2154ZM1.31359 20.4963C1.034 21.6713 1.94963 22.75 3.12388 22.75V21.25C2.87165 21.25 2.72823 21.031 2.77285 20.8435L1.31359 20.4963ZM3.12388 22.75H20.89V21.25H3.12388V22.75ZM20.89 22.75C22.0642 22.75 22.9798 21.6713 22.7003 20.4963L21.241 20.8435C21.2856 21.031 21.1422 21.25 20.89 21.25V22.75ZM22.7004 20.4971L22.1601 18.2154L20.7005 18.561L21.2408 20.8427L22.7004 20.4971ZM22.155 18.1951C21.9378 17.3799 21.1971 16.8056 20.3388 16.8056V18.3056C20.518 18.3056 20.6635 18.4233 20.7056 18.5813L22.155 18.1951ZM9.5106 8.91153H5.06908V10.4115H9.5106V8.91153ZM4.31908 9.66153V17.5556H5.81908V9.66153H4.31908ZM5.06908 18.3056H9.5106V16.8056H5.06908V18.3056ZM10.2606 17.5556V9.66153H8.7606V17.5556H10.2606ZM18.3828 8.91153H13.9413V10.4115H18.3828V8.91153ZM13.1913 9.66153V17.5556H14.6913V9.66153H13.1913ZM13.9413 18.3056H18.3828V16.8056H13.9413V18.3056ZM19.1328 17.5556V9.66153H17.6328V17.5556H19.1328ZM21.2422 7.61774C21.2422 8.33643 20.662 8.91154 19.9714 8.91154V10.4115C21.5069 10.4115 22.7422 9.14831 22.7422 7.61774H21.2422ZM19.9714 8.91154H4.02084V10.4115H19.9714V8.91154ZM4.02084 8.91154C3.32762 8.91154 2.75 8.34465 2.75 7.61774H1.25C1.25 9.16172 2.48789 10.4115 4.02084 10.4115V8.91154ZM2.75 7.61774C2.75 7.09727 3.04526 6.64573 3.50243 6.4439L2.89664 5.07167C1.88411 5.51866 1.25 6.51616 1.25 7.61774H2.75ZM3.50663 6.44203L11.4819 2.86267L10.8677 1.49418L2.89244 5.07354L3.50663 6.44203ZM11.4875 2.86015C11.8057 2.71421 12.174 2.71156 12.5101 2.86255L13.1248 1.4943C12.4018 1.16949 11.5814 1.16684 10.8622 1.49671L11.4875 2.86015ZM12.5103 2.86267L20.4856 6.44203L21.0998 5.07354L13.1245 1.49418L12.5103 2.86267ZM20.4898 6.4439C20.947 6.64573 21.2422 7.09727 21.2422 7.61774H22.7422C22.7422 6.51616 22.1081 5.51866 21.0956 5.07167L20.4898 6.4439ZM11.445 7.03764H12.5473V5.53764H11.445V7.03764Z" fill="black"/>
</svg>
