<svg width="24" height="24" viewBox="0 0 24 24" fill="none" xmlns="http://www.w3.org/2000/svg">
<path d="M6.8601 13.2583C7.55598 13.2583 8.1201 12.6942 8.1201 11.9983C8.1201 11.3024 7.55598 10.7383 6.8601 10.7383C6.16422 10.7383 5.6001 11.3024 5.6001 11.9983C5.6001 12.6942 6.16422 13.2583 6.8601 13.2583Z" fill="black"/>
<path d="M12.0002 13.2583C12.6961 13.2583 13.2602 12.6942 13.2602 11.9983C13.2602 11.3024 12.6961 10.7383 12.0002 10.7383C11.3044 10.7383 10.7402 11.3024 10.7402 11.9983C10.7402 12.6942 11.3044 13.2583 12.0002 13.2583Z" fill="black"/>
<path d="M17.1399 13.2583C17.8358 13.2583 18.3999 12.6942 18.3999 11.9983C18.3999 11.3024 17.8358 10.7383 17.1399 10.7383C16.444 10.7383 15.8799 11.3024 15.8799 11.9983C15.8799 12.6942 16.444 13.2583 17.1399 13.2583Z" fill="black"/>
<path d="M19.19 16.1089H4.81C3.67 16.1089 2.75 15.1889 2.75 14.0489V9.93891C2.75 8.79891 3.67 7.87891 4.81 7.87891H19.2C20.34 7.87891 21.26 8.79891 21.26 9.93891V14.0489C21.25 15.1889 20.33 16.1089 19.19 16.1089Z" stroke="black" stroke-width="1.5" stroke-linecap="round" stroke-linejoin="round"/>
</svg>
