<svg width="41" height="40" viewBox="0 0 41 40" fill="none" xmlns="http://www.w3.org/2000/svg">
<path d="M30.7834 3.33398H10.2167C7.65003 3.33398 5.55005 5.43398 5.55005 8.01731V31.984C5.55005 34.5673 7.65003 36.6673 10.2167 36.6673H30.7834C33.3501 36.6673 35.4501 34.5673 35.4501 31.984V8.01731C35.4501 5.43398 33.3501 3.33398 30.7834 3.33398ZM15.3667 8.46735H25.6334C26.3334 8.46735 26.8834 9.03401 26.8834 9.71735C26.8834 10.4173 26.3334 10.9673 25.6334 10.9673H15.3667C14.6667 10.9673 14.1167 10.4173 14.1167 9.71735C14.1167 9.03401 14.6667 8.46735 15.3667 8.46735ZM25.1834 14.8673C25.1834 15.5506 24.6167 16.1173 23.9334 16.1173H17.0667C16.3834 16.1173 15.8167 15.5506 15.8167 14.8673C15.8167 14.1673 16.3834 13.6173 17.0667 13.6173H23.9334C24.6167 13.6173 25.1834 14.1673 25.1834 14.8673ZM32.9501 31.984C32.9501 33.184 31.9834 34.1673 30.7834 34.1673H10.2167C9.0167 34.1673 8.05005 33.184 8.05005 31.984C8.05005 30.784 9.0167 29.8173 10.2167 29.8173H30.7834C31.5667 29.8173 32.3001 29.6173 32.9501 29.284V31.984Z" fill="#4DBB7E"/>
</svg>
