<svg width="25" height="24" viewBox="0 0 25 24" fill="none" xmlns="http://www.w3.org/2000/svg">
<path fill-rule="evenodd" clip-rule="evenodd" d="M8.10703 4.5V12.5C8.10703 14.7091 9.93707 16.5 12.1945 16.5H20.3695C22.627 16.5 24.457 14.7091 24.457 12.5V4.5C24.457 2.29086 22.627 0.5 20.3695 0.5H12.1945C9.93707 0.5 8.10703 2.29086 8.10703 4.5ZM22.9242 4.5V12.5C22.9242 13.163 22.6551 13.7989 22.176 14.2678C21.6969 14.7366 21.0471 15 20.3695 15H12.1945C10.7836 15 9.63984 13.8807 9.63984 12.5V4.5C9.63984 3.11929 10.7836 2 12.1945 2H20.3695C21.7804 2 22.9242 3.11929 22.9242 4.5Z" fill="#999999"/>
<path d="M5.04141 6.75C5.46238 6.75539 5.80231 7.08804 5.80781 7.5V15.5C5.81342 17.2926 7.29705 18.7445 9.12891 18.75H17.3039C17.7272 18.75 18.0703 19.0858 18.0703 19.5C18.0703 19.9142 17.7272 20.25 17.3039 20.25H9.12891C6.44817 20.25 4.275 18.1234 4.275 15.5V7.5C4.28051 7.08804 4.62043 6.75539 5.04141 6.75Z" fill="#999999"/>
</svg>
