<svg width="24" height="24" viewBox="0 0 24 24" fill="none" xmlns="http://www.w3.org/2000/svg">
<path d="M3.39999 8.21001C2.98578 8.21001 2.64999 8.5458 2.64999 8.96001C2.64999 9.37422 2.98578 9.71001 3.39999 9.71001V8.21001ZM21.08 9.71001C21.4942 9.71001 21.83 9.37422 21.83 8.96001C21.83 8.5458 21.4942 8.21001 21.08 8.21001V9.71001ZM5.94998 11.85C5.53577 11.85 5.19998 12.1858 5.19998 12.6C5.19998 13.0142 5.53577 13.35 5.94998 13.35V11.85ZM9.53 13.35C9.94421 13.35 10.28 13.0142 10.28 12.6C10.28 12.1858 9.94421 11.85 9.53 11.85V13.35ZM18.93 19.24H5.56V20.74H18.93V19.24ZM5.56 19.24C4.55612 19.24 3.75 18.4277 3.75 17.43H2.25C2.25 19.2523 3.72388 20.74 5.56 20.74V19.24ZM3.75 17.43V6.56002H2.25V17.43H3.75ZM3.75 6.56002C3.75 5.55613 4.56231 4.75 5.56 4.75V3.25C3.73769 3.25 2.25 4.72391 2.25 6.56002H3.75ZM5.56 4.75H18.93V3.25H5.56V4.75ZM18.93 4.75C19.9339 4.75 20.74 5.56232 20.74 6.56002H22.24C22.24 4.73772 20.7661 3.25 18.93 3.25V4.75ZM20.74 6.56002V17.43H22.24V6.56002H20.74ZM20.74 17.43C20.74 18.4258 19.9258 19.24 18.93 19.24V20.74C20.7542 20.74 22.24 19.2542 22.24 17.43H20.74ZM3.39999 9.71001H21.08V8.21001H3.39999V9.71001ZM5.94998 13.35H9.53V11.85H5.94998V13.35Z" fill="black"/>
</svg>
