<svg width="137" height="134" viewBox="0 0 137 134" fill="none" xmlns="http://www.w3.org/2000/svg">
<path d="M49.3709 23.3171C41.6745 25.3794 34.575 29.2326 28.652 34.5623C22.7291 39.892 18.1506 46.547 15.2905 53.9838C12.4304 61.4207 11.3697 69.4285 12.1951 77.3535C13.0205 85.2785 15.7085 92.896 20.0397 99.5838C24.3709 106.272 30.2225 111.84 37.1166 115.835C44.0107 119.83 51.7518 122.138 59.708 122.57C67.6641 123.002 75.6097 121.546 82.8958 118.321C90.1819 115.096 96.6021 110.194 101.632 104.014L62.4475 72.1198L49.3709 23.3171Z" fill="#E6E6E6"/>
<path d="M113.497 100.874C120.239 92.6106 124.194 82.4258 124.794 71.7779C125.395 61.13 122.61 50.5651 116.84 41.5963L74.3502 68.9332L113.497 100.874Z" fill="#B3B3B3"/>
<path d="M54.875 12.917C65.0555 10.1892 75.8488 10.7941 85.7081 14.645C95.5674 18.4959 103.987 25.3951 109.759 34.3539L67.9517 61.7197L54.875 12.917Z" fill="#CCCCCC"/>
</svg>
