<svg width="18" height="18" viewBox="0 0 18 18" fill="none" xmlns="http://www.w3.org/2000/svg">
<path d="M7.5 1.5H13.5C13.8978 1.5 14.2794 1.65804 14.5607 1.93934C14.842 2.22064 15 2.60218 15 3V15C15 15.3978 14.842 15.7794 14.5607 16.0607C14.2794 16.342 13.8978 16.5 13.5 16.5H4.5C4.10218 16.5 3.72065 16.342 3.43934 16.0607C3.15804 15.7794 3 15.3978 3 15V6L7.5 1.5Z" stroke="#223362" stroke-width="2" stroke-linecap="round" stroke-linejoin="round"/>
<path d="M7.5 1.5V6H3" stroke="#223362" stroke-width="2" stroke-linecap="round" stroke-linejoin="round"/>
<path d="M6 9.75H12" stroke="#223362" stroke-width="2" stroke-linecap="round" stroke-linejoin="round"/>
<path d="M6 12.75H12" stroke="#223362" stroke-width="2" stroke-linecap="round" stroke-linejoin="round"/>
<path d="M10.5 6.75H11.25H12" stroke="#223362" stroke-width="2" stroke-linecap="round" stroke-linejoin="round"/>
</svg>
