<svg width="36" height="44" viewBox="0 0 36 44" fill="none" xmlns="http://www.w3.org/2000/svg">
<path d="M10.334 5.9997H6.33398C5.27312 5.9997 4.2557 6.42113 3.50556 7.17127C2.75541 7.92142 2.33398 8.93883 2.33398 9.9997V37.9997C2.33398 39.0606 2.75541 40.078 3.50556 40.8281C4.2557 41.5783 5.27312 41.9997 6.33398 41.9997H30.334C31.3949 41.9997 32.4123 41.5783 33.1624 40.8281C33.9126 40.078 34.334 39.0606 34.334 37.9997V9.9997C34.334 8.93883 33.9126 7.92142 33.1624 7.17127C32.4123 6.42113 31.3949 5.9997 30.334 5.9997H26.334M18.3338 20H10.3338M18.3338 29.9997H10.3338M26.3341 20H26.3141M26.3341 29.9997H26.3141M12.3341 2H24.3341C24.8646 2 25.3733 2.21071 25.7483 2.58579C26.1234 2.96086 26.3341 3.46957 26.3341 4V8C26.3341 8.53043 26.1234 9.03914 25.7483 9.41421C25.3733 9.78928 24.8646 10 24.3341 10H12.3341C11.8037 10 11.295 9.78928 10.9199 9.41421C10.5448 9.03914 10.3341 8.53043 10.3341 8V4C10.3341 3.46957 10.5448 2.96086 10.9199 2.58579C11.295 2.21071 11.8037 2 12.3341 2Z" stroke="#4DBB7E" stroke-width="3" stroke-linecap="round" stroke-linejoin="round"/>
</svg>
