<svg width="18" height="18" viewBox="0 0 18 18" fill="none" xmlns="http://www.w3.org/2000/svg">
<path d="M9.75 3H15C15.3978 3 15.7794 3.15804 16.0607 3.43934C16.342 3.72064 16.5 4.10218 16.5 4.5V15C16.5 15.3978 16.342 15.7794 16.0607 16.0607C15.7794 16.342 15.3978 16.5 15 16.5H4.5C4.10218 16.5 3.72065 16.342 3.43934 16.0607C3.15804 15.7794 3 15.3978 3 15V9.75" stroke="#2C3660" stroke-width="2" stroke-linecap="round" stroke-linejoin="round"/>
<path d="M4.125 1.87517C3.82663 1.5768 3.42196 1.40918 3 1.40918C2.57805 1.40918 2.17337 1.5768 1.875 1.87517C1.57664 2.17354 1.40901 2.57821 1.40901 3.00017C1.40901 3.42213 1.57664 3.8268 1.875 4.12517L9 11.2502L12 12.0002L11.25 9.00017L4.125 1.87517Z" stroke="#2C3660" stroke-width="2" stroke-linecap="round" stroke-linejoin="round"/>
</svg>
