<svg width="22" height="22" viewBox="0 0 22 22" fill="none" xmlns="http://www.w3.org/2000/svg">
<rect x="1" y="1" width="20" height="20" rx="4" fill="#3855A4" stroke="#3855A4" stroke-width="1.5"/>
<path d="M13.4209 6H17.4593C17.9054 6 18.267 6.36161 18.267 6.80768V6.83333V11C18.267 11.221 18.1819 11.433 18.0304 11.5893C17.879 11.7455 17.6735 11.8333 17.4593 11.8333C17.2451 11.8333 17.0397 11.7455 16.8882 11.5893C16.7367 11.433 16.6516 11.221 16.6516 11V9.08333L13.227 13.2083C13.1034 13.3574 12.9327 13.4567 12.7451 13.4888C12.5574 13.5208 12.3649 13.4834 12.2013 13.3833L8.75248 11.25L5.15829 15.7C5.08235 15.7941 4.98725 15.8697 4.87976 15.9216C4.77227 15.9734 4.65503 16.0002 4.53637 16C4.34765 16.0004 4.16476 15.9326 4.01945 15.8083C3.93767 15.7384 3.87006 15.6525 3.82051 15.5555C3.77096 15.4585 3.74043 15.3525 3.73068 15.2433C3.72092 15.1342 3.73213 15.0241 3.76367 14.9194C3.79521 14.8148 3.84644 14.7175 3.91445 14.6333L7.95287 9.63333C8.07583 9.4808 8.2475 9.37854 8.43701 9.34493C8.62652 9.31133 8.82144 9.34858 8.9867 9.45L12.4759 11.5917L15.7066 7.66667H13.4209C13.2067 7.66667 13.0012 7.57887 12.8498 7.42259C12.6983 7.26631 12.6132 7.05435 12.6132 6.83333C12.6132 6.61232 12.6983 6.40036 12.8498 6.24408C13.0012 6.0878 13.2067 6 13.4209 6Z" fill="white"/>
</svg>
