<svg width="22" height="22" viewBox="0 0 22 22" fill="none" xmlns="http://www.w3.org/2000/svg">
<rect x="1" y="1" width="20" height="20" rx="4" stroke="#B3B3B3" stroke-width="1.5"/>
<path d="M13.663 6H16.5H17.9937C18.546 6 18.9937 6.44772 18.9937 7V9.5V11C18.9937 11.221 18.9001 11.433 18.7335 11.5893C18.5669 11.7455 18.3409 11.8333 18.1052 11.8333C17.8696 11.8333 17.6436 11.7455 17.477 11.5893C17.3104 11.433 17.2168 11.221 17.2168 11V9.08333L13.4498 13.2083C13.3137 13.3574 13.126 13.4567 12.9196 13.4888C12.7132 13.5208 12.5014 13.4834 12.3214 13.3833L8.52773 11.25L4.57412 15.7C4.49059 15.7941 4.38598 15.8697 4.26774 15.9216C4.14951 15.9734 4.02054 16.0002 3.89002 16C3.68243 16.0004 3.48125 15.9326 3.32141 15.8083C3.23144 15.7384 3.15708 15.6525 3.10257 15.5555C3.04806 15.4585 3.01448 15.3525 3.00375 15.2433C2.99302 15.1342 3.00536 15.0241 3.04005 14.9194C3.07474 14.8148 3.1311 14.7175 3.20591 14.6333L7.64817 9.63333C7.78342 9.4808 7.97226 9.37854 8.18073 9.34493C8.38919 9.31133 8.60359 9.34858 8.78538 9.45L12.6235 11.5917L16.1773 7.66667H13.663C13.4274 7.66667 13.2014 7.57887 13.0348 7.42259C12.8681 7.26631 12.7745 7.05435 12.7745 6.83333C12.7745 6.61232 12.8681 6.40036 13.0348 6.24408C13.2014 6.0878 13.4274 6 13.663 6Z" fill="#B3B3B3"/>
</svg>
