<svg width="112" height="69" viewBox="0 0 112 69" fill="none" xmlns="http://www.w3.org/2000/svg">
<g clip-path="url(#clip0_3881_48222)">
<path d="M63.7194 24.6339L75.0834 0.0824651L71.0809 0L59.6577 24.6674L63.7194 24.6339Z" fill="#54B473"/>
<path d="M41.4443 30.3883L43.5833 33.6379C46.818 31.7363 49.4001 28.8967 50.9885 25.4945L61.9355 2.04346L57.933 2.11819L48.291 22.5927C46.7961 25.7905 44.4209 28.4949 41.4443 30.3883Z" fill="#54B473"/>
<path d="M47.6501 3.6748L43.6141 3.71346L35.9052 20.4771L39.7867 20.4848L47.6501 3.6748Z" fill="#54B473"/>
<path d="M27.7329 54.4116H25.0689L26.675 51.7831H29.9568L34.541 65.1166C36.1291 62.4494 37.7713 58.8416 38.2372 56.2542L37.604 54.4116H34.8627L36.4663 51.7831H39.8279L44.5125 65.2738C47.1379 61.4315 48.6771 57.1562 48.3605 55.0765C48.2575 54.4116 47.9821 54.1359 47.2357 54.1359C46.4892 54.1359 45.6913 54.489 44.9191 55.0379L43.7145 53.0381C44.6128 52.265 46.0851 51.3914 47.7299 51.3914C49.9255 51.3914 51.0528 52.8809 51.318 54.6075C51.8147 57.8623 49.3875 63.5086 45.6965 68.5673H42.9398L39.8794 60.3208C38.811 63.2169 37.42 65.9832 35.7327 68.5673H32.9143L27.7329 54.4116Z" fill="#2D4483"/>
<path d="M53.9537 61.3513C53.0425 55.3907 56.4993 51.3524 61.1993 51.3524C62.3531 51.34 63.4906 51.6257 64.5019 52.1819C65.5132 52.738 66.3642 53.5458 66.9727 54.5273L67.0628 51.7828H70.3935L70.1 64.5623C70.0511 65.7787 70.5325 66.3663 71.6702 66.3663C72.3463 66.3373 73.0125 66.1917 73.6392 65.9359L73.5646 68.5129C72.7261 68.7889 71.8501 68.9341 70.9675 68.9433C68.6509 68.9433 67.4643 67.8068 67.1066 65.9642C66.5218 66.9014 65.7055 67.6718 64.7366 68.2009C63.7676 68.73 62.6787 68.9999 61.5751 68.9845C57.9304 69 54.7027 66.3328 53.9537 61.3513ZM67.0293 58.9985C66.5634 55.9396 64.808 53.9398 62.1826 53.9398C58.8133 53.9398 56.7773 57.1946 57.3951 61.3127C57.8867 64.5288 59.7425 66.4101 62.2495 66.4101C65.6446 66.4101 67.6213 62.9594 67.0165 58.9985H67.0293Z" fill="#2D4483"/>
<path d="M75.1501 61.47C74.257 55.6253 77.7961 51.3525 83.0444 51.3525C86.4111 51.3525 88.4497 53.1152 88.8281 55.6253C89.523 60.1763 84.0328 61.6658 78.5529 61.939C79.2221 65.0314 81.1088 66.3715 83.9299 66.3715C85.8886 66.3715 87.626 65.704 89.1189 64.9593L88.9954 67.7451C87.4324 68.5921 85.6787 69.0242 83.9015 69.0001C79.5516 69.0001 75.9352 66.606 75.1501 61.47ZM85.7471 55.7052C85.5952 54.7233 84.9157 53.8626 83.2709 53.8626C80.4885 53.8626 78.5323 56.1819 78.3238 59.4315C82.2671 59.2743 86.1409 58.2925 85.7471 55.7052Z" fill="#2D4483"/>
<path d="M91.8962 61.3515C90.985 55.3908 94.4418 51.3526 99.1419 51.3526C101.729 51.3526 103.649 52.6411 104.91 54.4888L105.191 47.3504H101.742L103.34 44.6858H108.581L108.066 64.5676C108.025 65.8226 108.539 66.3715 109.636 66.3715C110.312 66.3425 110.978 66.1969 111.605 65.9412L111.533 68.5182C110.681 68.7968 109.791 68.942 108.895 68.9486C106.506 68.9486 105.425 67.7734 105.07 65.9695C104.485 66.9067 103.669 67.6771 102.7 68.2062C101.731 68.7352 100.642 69.0051 99.5382 68.9898C95.8858 69.0001 92.6581 66.3329 91.8962 61.3515ZM104.972 58.9986C104.506 55.9397 102.751 53.9399 100.125 53.9399C96.7558 53.9399 94.7198 57.1947 95.3376 61.3128C95.8292 64.529 97.685 66.4102 100.192 66.4102C103.597 66.4102 105.577 62.9595 104.972 58.9986Z" fill="#2D4483"/>
<path d="M25.5374 66.0881C25.2416 66.0878 24.9529 65.9974 24.7097 65.829C24.4665 65.6605 24.2802 65.4219 24.1757 65.1449L16.4539 44.6858H9.4502L7.88009 47.469H11.2777L3.54042 65.784H2.02179L0.415649 68.5672H9.48108L10.7217 65.784H7.19542L9.07955 61.1943H19.2647L20.7164 65.0598C21.0313 65.9257 21.5241 66.7158 22.1629 67.3792C22.8167 68.0466 23.7201 68.6677 24.8089 68.6677C25.7031 68.6635 26.5914 68.521 27.4421 68.245L27.5167 65.668C26.8859 65.9207 26.2163 66.0628 25.5374 66.0881ZM10.2095 58.4111L14.4951 48.0179L18.2763 58.4111H10.2095Z" fill="#2D4483"/>
</g>
<defs>
<clipPath id="clip0_3881_48222">
<rect width="111.194" height="69.0001" fill="white" transform="translate(0.402771)"/>
</clipPath>
</defs>
</svg>
