<svg width="120" height="66" viewBox="0 0 120 66" fill="none" xmlns="http://www.w3.org/2000/svg">
<path d="M66.9049 22.1439L75.8966 2.60923L72.73 2.54102L63.6875 22.1695L66.9049 22.1439Z" fill="#4EBA7D"/>
<path d="M48.4883 26.7143L50.1816 29.2723C52.7404 27.7586 54.7833 25.4991 56.0407 22.792L64.6937 4.16968L61.5272 4.26347L53.907 20.5495C52.7335 23.0944 50.8585 25.2461 48.5052 26.7484" fill="#4EBA7D"/>
<path d="M53.3994 5.46558L50.2074 5.49968L44.1113 18.8355H47.1763L53.3994 5.46558Z" fill="#4EBA7D"/>
<path d="M103.921 54.9803H97.8076C95.1744 54.9803 93.6334 53.3943 93.244 50.8363C92.7952 47.8349 94.0906 45.0637 97.5451 45.0637C98.4101 44.9827 99.2818 45.1144 100.085 45.4474L101.059 43.7847C99.7361 43.2772 98.334 43.0116 96.9186 43.0002C91.9316 43.0002 89.8742 46.8117 90.5092 50.9898C90.6954 52.5344 91.3691 53.9781 92.4312 55.1082H82.4065L82.6859 43.7676H80.2051L80.1204 46.266C79.6616 45.3973 78.974 44.6728 78.1331 44.1719C77.2922 43.671 76.3305 43.4132 75.3536 43.4266C71.6621 43.4266 69.012 46.5815 69.7232 51.2285C70.3074 55.0996 72.822 57.1972 75.65 57.1972C77.4449 57.1972 80.1543 57.1034 80.1543 57.1034L80.0612 58.1437C80.0019 60.173 78.0461 60.6505 76.031 60.6505C74.3421 60.5743 72.6798 60.1991 71.1202 59.5421V61.6993C72.8984 62.3676 74.7768 62.7252 76.6744 62.7566C79.8326 62.7566 82.2541 61.3497 82.3472 57.8879V57.0352H98.0446H102.837L103.921 54.9803ZM72.3987 51.1603C71.9246 48.0395 73.4401 45.5412 76.0733 45.5412C78.1815 45.5412 79.5277 47.076 79.8834 49.4464C80.0558 51.3369 80.1208 53.2358 80.0781 55.1338C80.0781 55.1338 77.3687 55.1338 76.1918 55.1338C74.1767 55.0655 72.8136 53.5989 72.3987 51.1603Z" fill="#314279"/>
<path d="M64.8045 53.9059L65.2533 38.0889H61.5025L60.1816 40.212H62.5354L62.1459 53.7183C62.1459 55.6795 62.9503 57.3678 65.4903 57.3678C66.198 57.3635 66.9006 57.2485 67.5732 57.0267V54.9632C67.077 55.1656 66.5501 55.281 66.0153 55.3043C65.194 55.3384 64.796 54.9035 64.8045 53.9059Z" fill="#314279"/>
<path d="M55.6956 53.9995L55.9327 43.7675H55.8141L55.8903 43.7078H52.0887L51.0304 45.7883H53.2656L53.1301 55.3041H31.4467C30.0158 55.3041 29.5162 54.2468 29.5755 52.7461L29.6348 50.4609C29.6111 48.6943 28.9077 47.0059 27.6728 45.7511C26.4378 44.4963 24.7676 43.7729 23.0137 43.7333H18.8396L17.4256 45.8906H22.5057C23.6825 45.9232 24.8016 46.4109 25.6308 47.2523C26.4601 48.0938 26.9358 49.2245 26.9593 50.4098V51.8934C26.8184 52.9036 26.3041 53.8231 25.5193 54.468C24.7344 55.113 23.7369 55.4359 22.7259 55.3723C21.4558 55.3723 17.5272 55.3041 17.5272 55.3041L16.0879 57.4358H23.2847C24.9212 57.5185 26.5242 56.9487 27.7467 55.8498C28.1069 56.3574 28.5859 56.7676 29.1412 57.0443C29.6965 57.3209 30.311 57.4554 30.9302 57.4358H53.5535C53.5535 57.4358 54.4764 57.4358 56.3645 57.4358C57.0722 57.4324 57.775 57.3173 58.4473 57.0947L58.4981 55.1591C58.01 55.3589 57.4919 55.4742 56.9656 55.5002C56.0427 55.4661 55.6617 54.9971 55.6956 53.9995Z" fill="#314279"/>
<path d="M36.4064 52.371V52.5245H41.6304C41.859 52.5245 42.0961 52.5245 42.3332 52.5245H44.7039L45.195 50.9555H42.5618C40.8092 50.9555 39.6915 50.1029 39.4121 48.5425C39.3173 48.1281 39.3144 47.6978 39.4037 47.2821C39.493 46.8665 39.6722 46.4758 39.9286 46.1379C40.2373 45.814 40.6122 45.5616 41.0274 45.3981C41.4426 45.2347 41.8882 45.1642 42.3332 45.1915C43.0615 45.1705 43.7882 45.2713 44.4837 45.4899L44.67 45.5581L45.068 44.1427H44.9579C43.9721 43.8266 42.9444 43.6628 41.9098 43.6567C41.1805 43.6033 40.4484 43.7132 39.7662 43.9786C39.084 44.244 38.4687 44.6582 37.9643 45.1915C37.5717 45.6745 37.2918 46.2402 37.1452 46.8468C36.9987 47.4533 36.9893 48.0853 37.1176 48.696C37.2507 49.5467 37.6308 50.3388 38.2098 50.9726H36.2794L36.3302 51.416L35.9746 52.3539L36.4064 52.371Z" fill="#314279"/>
</svg>
