<svg width="18" height="19" viewBox="0 0 18 19" fill="none" xmlns="http://www.w3.org/2000/svg">
<path d="M10.9929 8.09514C10.9929 8.7402 10.2441 9.31614 9.10377 9.67323C8.4207 9.86576 7.71667 9.97408 7.00732 9.99576C6.87702 10.0072 6.74597 10.0072 6.61568 9.99576C4.20822 9.99576 2.25 9.13184 2.25 8.0721C2.25 7.01236 4.20822 6.14844 6.61568 6.14844H7.00732C7.20314 6.14844 7.38744 6.14844 7.57175 6.14844C8.60073 6.23543 9.5874 6.59747 10.4284 7.19666C10.5824 7.29614 10.7127 7.42813 10.8102 7.58335C10.9077 7.73856 10.9701 7.91325 10.9929 8.09514V8.09514Z" stroke="white" stroke-width="1.5" stroke-linecap="round" stroke-linejoin="round"/>
<path d="M10.9933 8.09473V10.8478C10.9933 11.5504 10.1524 12.1494 8.88535 12.4834C8.13299 12.678 7.35868 12.7748 6.58156 12.7714C4.58879 12.7714 2.90702 12.1839 2.38867 11.3891" stroke="white" stroke-width="1.5" stroke-linecap="round" stroke-linejoin="round"/>
<path d="M10.9929 10.8477V13.7159C10.9929 14.7871 9.03465 15.6395 6.61568 15.6395C4.1967 15.6395 2.25 14.7871 2.25 13.7159" stroke="white" stroke-width="1.5" stroke-linecap="round" stroke-linejoin="round"/>
<path d="M7.26025 5.92907C7.10587 5.74853 7.01662 5.52136 7.00684 5.28401C7.00684 4.22427 8.96505 3.36035 11.384 3.36035C13.803 3.36035 15.7497 4.22427 15.7497 5.28401C15.7497 6.34376 13.7915 7.19616 11.384 7.19616C11.0656 7.21369 10.7464 7.21369 10.428 7.19616" stroke="white" stroke-width="1.5" stroke-linecap="round" stroke-linejoin="round"/>
<path d="M10.9932 12.8164H11.3848C13.7923 12.8164 15.7505 11.964 15.7505 10.9043" stroke="white" stroke-width="1.5" stroke-linecap="round" stroke-linejoin="round"/>
<path d="M10.9932 9.94828H11.3848C13.7923 9.94828 15.7505 9.08436 15.7505 8.03613" stroke="white" stroke-width="1.5" stroke-linecap="round" stroke-linejoin="round"/>
<path d="M15.7505 10.9044V8.03623V5.2832" stroke="white" stroke-width="1.5" stroke-linecap="round" stroke-linejoin="round"/>
<path d="M2.25 13.716V8.09473" stroke="white" stroke-width="1.5" stroke-linecap="round" stroke-linejoin="round"/>
</svg>
