<svg width="18" height="19" viewBox="0 0 18 19" fill="none" xmlns="http://www.w3.org/2000/svg">
<path d="M3.60742 2.5625H14.3924" stroke="white" stroke-width="1.5" stroke-linecap="round" stroke-linejoin="round"/>
<path d="M3.60742 16.4375H14.3924" stroke="white" stroke-width="1.5" stroke-linecap="round" stroke-linejoin="round"/>
<path d="M12.4049 6.09501L10.0949 8.405C9.49485 9.005 8.51985 9.005 7.91235 8.405L5.60235 6.09501C5.30985 5.80251 5.15234 5.4125 5.15234 5.0075V4.1075C5.15234 3.2525 5.84234 2.5625 6.69734 2.5625H11.3249C12.1799 2.5625 12.8699 3.2525 12.8699 4.1075V5.0075C12.8549 5.4125 12.6899 5.81001 12.4049 6.09501Z" stroke="white" stroke-width="1.5" stroke-linecap="round" stroke-linejoin="round"/>
<path d="M12.855 14.8926C12.855 15.7476 12.165 16.4376 11.31 16.4376H6.69002C5.83502 16.4376 5.14502 15.7476 5.14502 14.8926H12.855Z" stroke="white" stroke-width="1.5" stroke-linecap="round" stroke-linejoin="round"/>
<path d="M12.855 13.9925V14.8925H5.14502V13.9925C5.14502 13.5875 5.31002 13.1899 5.59502 12.9049L7.91252 10.5875C8.51252 9.98745 9.48752 9.98745 10.0875 10.5875L12.405 12.9049C12.69 13.1899 12.855 13.5875 12.855 13.9925Z" stroke="white" stroke-width="1.5" stroke-linecap="round" stroke-linejoin="round"/>
<path d="M7.45508 7.95508H10.5451" stroke="white" stroke-width="1.5" stroke-linecap="round" stroke-linejoin="round"/>
<path d="M9 13.145C8.85 13.145 8.7075 13.085 8.6025 12.98C8.4975 12.875 8.4375 12.7325 8.4375 12.5825C8.4375 12.5075 8.4525 12.44 8.4825 12.365C8.5125 12.2975 8.55 12.2375 8.6025 12.185C8.7525 12.0275 9.00749 11.9825 9.21749 12.065C9.28499 12.095 9.345 12.1325 9.3975 12.185C9.45 12.2375 9.4875 12.2975 9.5175 12.365C9.5475 12.44 9.5625 12.5075 9.5625 12.5825C9.5625 12.7325 9.5025 12.875 9.3975 12.98C9.2925 13.085 9.15 13.145 9 13.145Z" fill="white"/>
</svg>
