<svg width="102" height="102" viewBox="0 0 102 102" fill="none" xmlns="http://www.w3.org/2000/svg">
<rect width="102" height="102" rx="51" fill="#DDFFEC"/>
<path d="M51 21.833C34.9292 21.833 21.8334 34.9288 21.8334 50.9997C21.8334 67.0705 34.9292 80.1663 51 80.1663C67.0709 80.1663 80.1667 67.0705 80.1667 50.9997C80.1667 34.9288 67.0709 21.833 51 21.833ZM61.4709 46.8872L51.2042 57.1538C50.7667 57.5913 50.2125 57.7955 49.6584 57.7955C49.1042 57.7955 48.5209 57.5913 48.1125 57.1538L42.9792 52.0205C42.1042 51.1747 42.1042 49.7747 42.9792 48.9288C43.825 48.083 45.225 48.083 46.0709 48.9288L49.6584 52.5164L58.3792 43.7955C59.225 42.9497 60.5959 42.9497 61.4709 43.7955C62.3167 44.6413 62.3167 46.0413 61.4709 46.8872Z" fill="#4DBB7E"/>
</svg>
