<svg width="24" height="24" viewBox="0 0 24 24" fill="none" xmlns="http://www.w3.org/2000/svg">
<path d="M17.6192 6.63439C17.6192 4.63331 16.1265 3 14.2877 3H13.0703H3.66576C2.74635 3 2 3.81125 2 4.81719C2 5.82314 2.74635 6.63439 3.66576 6.63439H17.6192Z" fill="#223362" stroke="#223362" stroke-width="1.5" stroke-linecap="round" stroke-linejoin="round"/>
<path d="M2 17.4726V6.5H4C4.4 6.5 13.8583 6.58958 18.7874 6.63437C20.5613 6.63437 22.0108 8.0838 21.9999 9.86855V17.4726C21.9999 19.2466 20.5613 20.696 18.7766 20.696H5.22335C3.44943 20.696 2 19.2574 2 17.4726Z" fill="#3855A4"/>
<path d="M2 6.5V5.75H1.25V6.5H2ZM21.9999 9.86855L21.2499 9.86401V9.86855H21.9999ZM18.7874 6.63437L18.7806 7.38437H18.7874V6.63437ZM1.25 6.5V17.4726H2.75V6.5H1.25ZM1.25 17.4726C1.25 19.6732 3.03685 21.446 5.22335 21.446V19.946C3.862 19.946 2.75 18.8415 2.75 17.4726H1.25ZM5.22335 21.446H18.7766V19.946H5.22335V21.446ZM18.7766 21.446C20.9772 21.446 22.7499 19.6591 22.7499 17.4726H21.2499C21.2499 18.834 20.1455 19.946 18.7766 19.946V21.446ZM22.7499 17.4726V9.86855H21.2499V17.4726H22.7499ZM22.7499 9.8731C22.7633 7.67135 20.9763 5.88437 18.7874 5.88437V7.38437C20.1464 7.38437 21.2582 8.49625 21.25 9.86401L22.7499 9.8731ZM2 7.25H4V5.75H2V7.25ZM4 7.25C4.39546 7.25 13.8466 7.3395 18.7806 7.38434L18.7942 5.8844C13.8699 5.83965 4.40454 5.75 4 5.75V7.25Z" fill="#3855A4"/>
<path d="M1.25 10.4998L1.25 4.7998C1.5 5.0498 2 5.74976 4.5 5.74976L1.25 10.4998Z" fill="#3855A4"/>
<path d="M18.1818 14.2166C18.4865 14.2166 18.7334 13.9696 18.7334 13.6649C18.7334 13.3602 18.4865 13.1133 18.1818 13.1133C17.8771 13.1133 17.6301 13.3602 17.6301 13.6649C17.6301 13.9696 17.8771 14.2166 18.1818 14.2166Z" fill="white" stroke="white" stroke-width="1.5" stroke-linecap="round" stroke-linejoin="round"/>
</svg>
