<svg width="24" height="24" viewBox="0 0 24 24" fill="none" xmlns="http://www.w3.org/2000/svg">
<path d="M2 10.6149V5.23904M8.73877 3H14.2877C16.1265 3 17.6192 4.63331 17.6192 6.63439M11.4429 6.63439H3.66576C2.74635 6.63439 2 5.82314 2 4.81719C2 3.81125 2.74635 3 3.66576 3H11.4429M18.7874 6.63436H2V17.4726C2 19.2574 3.44943 20.696 5.22335 20.696H18.7766C20.5613 20.696 21.9999 19.2466 21.9999 17.4726V9.86855C22.0108 8.08379 20.5613 6.63436 18.7874 6.63436Z" stroke="#B3B3B3" stroke-width="1.5" stroke-linecap="round" stroke-linejoin="round"/>
<path d="M18.1818 14.2166C18.4865 14.2166 18.7334 13.9696 18.7334 13.6649C18.7334 13.3602 18.4865 13.1133 18.1818 13.1133C17.8771 13.1133 17.6301 13.3602 17.6301 13.6649C17.6301 13.9696 17.8771 14.2166 18.1818 14.2166Z" fill="#B3B3B3" stroke="#B3B3B3" stroke-width="1.5" stroke-linecap="round" stroke-linejoin="round"/>
</svg>
