<svg width="40" height="40" viewBox="0 0 40 40" fill="none" xmlns="http://www.w3.org/2000/svg">
<path d="M19.9999 3.33398C10.8166 3.33398 3.33325 10.8173 3.33325 20.0007C3.33325 29.184 10.8166 36.6673 19.9999 36.6673C29.1833 36.6673 36.6666 29.184 36.6666 20.0007C36.6666 10.8173 29.1833 3.33398 19.9999 3.33398ZM19.9999 26.8007C19.3166 26.8007 18.7499 26.2507 18.7499 25.5507C18.7499 24.8673 19.3166 24.3007 19.9999 24.3007C20.6999 24.3007 21.2499 24.8673 21.2499 25.5507C21.2499 26.2507 20.6999 26.8007 19.9999 26.8007ZM21.2499 20.9673C21.2499 21.6673 20.6833 22.2173 19.9999 22.2173C19.3166 22.2173 18.7499 21.6673 18.7499 20.9673V13.2006C18.7499 12.5006 19.3166 11.9506 19.9999 11.9506C20.6833 11.9506 21.2499 12.5006 21.2499 13.2006V20.9673Z" fill="#EF4444"/>
</svg>
