<svg width="24" height="24" viewBox="0 0 24 24" fill="none" xmlns="http://www.w3.org/2000/svg">
<path opacity="0.8" d="M12 17C13.1046 17 14 16.1046 14 15C14 13.8954 13.1046 13 12 13C10.8954 13 10 13.8954 10 15C10 16.1046 10.8954 17 12 17Z" stroke="white" stroke-width="1.5" stroke-linecap="round" stroke-linejoin="round"/>
<path opacity="0.8" d="M5.84006 16.0297C6.40891 16.0297 6.87006 15.5686 6.87006 14.9997C6.87006 14.4309 6.40891 13.9697 5.84006 13.9697C5.2712 13.9697 4.81006 14.4309 4.81006 14.9997C4.81006 15.5686 5.2712 16.0297 5.84006 16.0297Z" fill="white"/>
<path opacity="0.8" fill-rule="evenodd" clip-rule="evenodd" d="M12.7895 8.25H11.2105V9.21053C11.2105 9.41914 11.2914 9.60886 11.4236 9.75H12.5764C12.7086 9.60886 12.7895 9.41914 12.7895 9.21053V8.25ZM14.2255 9.75C14.2673 9.57701 14.2895 9.39635 14.2895 9.21053V8.25H19.25C21.3242 8.25 23 9.92579 23 12V18C23 20.0742 21.3242 21.75 19.25 21.75H4.75C2.67579 21.75 1 20.0742 1 18V12C1 9.92579 2.67579 8.25 4.75 8.25H9.71053V9.21053C9.71053 9.39635 9.73266 9.57701 9.77445 9.75H4.75C3.50421 9.75 2.5 10.7542 2.5 12V18C2.5 19.2458 3.50421 20.25 4.75 20.25H19.25C20.4958 20.25 21.5 19.2458 21.5 18V12C21.5 10.7542 20.4958 9.75 19.25 9.75H14.2255Z" fill="white"/>
<path fill-rule="evenodd" clip-rule="evenodd" d="M16.7688 5.55824C16.4605 5.86655 15.9606 5.86655 15.6523 5.55824L12.7895 2.69543L12.7895 9.21053C12.7895 9.64654 12.436 10 12 10C11.564 10 11.2105 9.64654 11.2105 9.21053L11.2105 2.69543L8.34772 5.55824C8.03941 5.86655 7.53954 5.86655 7.23123 5.55824C6.92292 5.24993 6.92292 4.75007 7.23123 4.44176L11.4418 0.231231C11.7501 -0.0770774 12.2499 -0.0770774 12.5582 0.231231L16.7688 4.44176C17.0771 4.75007 17.0771 5.24993 16.7688 5.55824Z" fill="white"/>
<path opacity="0.8" d="M18.1399 16.0297C18.7087 16.0297 19.1699 15.5686 19.1699 14.9997C19.1699 14.4309 18.7087 13.9697 18.1399 13.9697C17.571 13.9697 17.1099 14.4309 17.1099 14.9997C17.1099 15.5686 17.571 16.0297 18.1399 16.0297Z" fill="white"/>
</svg>
