<svg width="18" height="18" viewBox="0 0 18 18" fill="none" xmlns="http://www.w3.org/2000/svg">
    <path fill-rule="evenodd" clip-rule="evenodd"
        d="M12.6061 11.4158L17.0894 15.8992C17.247 16.0568 17.3355 16.2707 17.3354 16.4936C17.3353 16.7166 17.2467 16.9303 17.089 17.0879C16.9313 17.2455 16.7175 17.334 16.4945 17.3339C16.2716 17.3338 16.0578 17.2452 15.9003 17.0875L11.4169 12.6042C10.0767 13.6422 8.39132 14.1307 6.70369 13.9703C5.01607 13.8098 3.45295 13.0125 2.33232 11.7405C1.2117 10.4685 0.617748 8.81733 0.671299 7.12295C0.72485 5.42856 1.42188 3.81821 2.62059 2.61949C3.81931 1.42078 5.42965 0.723752 7.12404 0.6702C8.81843 0.616649 10.4696 1.2106 11.7416 2.33123C13.0136 3.45185 13.8109 5.01497 13.9714 6.7026C14.1318 8.39022 13.6433 10.0756 12.6053 11.4158H12.6061ZM7.33525 12.3333C8.66134 12.3333 9.93311 11.8065 10.8708 10.8689C11.8085 9.93118 12.3353 8.65941 12.3353 7.33332C12.3353 6.00724 11.8085 4.73547 10.8708 3.79779C9.93311 2.86011 8.66134 2.33332 7.33525 2.33332C6.00917 2.33332 4.7374 2.86011 3.79972 3.79779C2.86204 4.73547 2.33526 6.00724 2.33526 7.33332C2.33526 8.65941 2.86204 9.93118 3.79972 10.8689C4.7374 11.8065 6.00917 12.3333 7.33525 12.3333Z"
        fill="#B7C4D2" />
</svg>
